<?xml version="1.0" encoding="UTF-8"?>
<svg id="Layer_2" data-name="Layer 2" xmlns="http://www.w3.org/2000/svg" xmlns:xlink="http://www.w3.org/1999/xlink" viewBox="0 0 319.39 262.7">
  <defs>
    <style>
      .cls-1 {
        fill: #fff0d8;
      }

      .cls-1, .cls-2, .cls-3, .cls-4, .cls-5, .cls-6, .cls-7, .cls-8 {
        stroke: #bc398f;
        stroke-miterlimit: 10;
      }

      .cls-1, .cls-3, .cls-7, .cls-8 {
        stroke-width: 5px;
      }

      .cls-2, .cls-5 {
        stroke-width: 3px;
      }

      .cls-2, .cls-6, .cls-7, .cls-8 {
        fill: none;
      }

      .cls-3, .cls-5 {
        fill: #fcf8e8;
      }

      .cls-4 {
        fill: url(#linear-gradient);
        stroke-width: 4px;
      }

      .cls-6 {
        stroke-width: 11px;
      }

      .cls-8 {
        stroke-linecap: round;
      }
    </style>
    <linearGradient id="linear-gradient" x1="96.44" y1="83.68" x2="227.08" y2="83.68" gradientUnits="userSpaceOnUse">
      <stop offset="0" stop-color="#f26c4a"/>
      <stop offset="1" stop-color="#d6de2e"/>
    </linearGradient>
  </defs>
  <g id="Layer_1-2" data-name="Layer 1">
    <path class="cls-1" d="M82.19,2.51h168.7v170.51H73.25s-.07-.03-.07-.07V11.52c0-4.97,4.04-9.01,9.01-9.01Z"/>
    <path class="cls-1" d="M72.91,2.55v170.44l-10.25,1.48-59.82,8.64s-.09-.03-.09-.08c0,0,0-40.03-.01-80.06,0-11.69-.54-40.72.01-79.96,0,0,0-.1,0-.11L72.84,2.5s.07.02.07.05Z"/>
    <path class="cls-1" d="M250.61,172.99h0s-177.34,0-177.34,0c-.09,0-.12.13-.04.16l-.3-.14s-.04,0-.05,0l-10.23,1.47-59.9,8.65h0v68.08c0,5.02,4.11,9.07,9.13,9l149.88-2.12,155.13-.45v-37.41c0-1.4-.7-2.72-1.86-3.5l-64.42-43.72Z"/>
    <line class="cls-8" x1="172.31" y1="258.05" x2="172.31" y2="221.47"/>
    <path class="cls-4" d="M214.04,143.44h-104.56c-7.2,0-13.04-5.79-13.04-12.92V38.07c0-3.57,1.46-6.8,3.82-9.14,2.99-2.96,6.85-3.53,9.22-3.79,17.35-1.91,91.03-1.34,104.56,0,6,.59,9.22,3.79,9.22,3.79,2.36,2.34,3.82,5.57,3.82,9.14v92.44c0,7.14-5.84,12.92-13.04,12.92Z"/>
    <line class="cls-5" x1="39.03" y1="248.24" x2="61.25" y2="220.48"/>
    <line class="cls-5" x1="21.04" y1="229.08" x2="34.12" y2="212.73"/>
    <line class="cls-5" x1="22.73" y1="248.24" x2="36.23" y2="231.36"/>
    <line class="cls-5" x1="202.52" y1="249.86" x2="214.92" y2="234.36"/>
    <line class="cls-5" x1="33.32" y1="153.96" x2="55.54" y2="126.19"/>
    <line class="cls-5" x1="19.82" y1="155.62" x2="33.32" y2="138.74"/>
    <polyline class="cls-2" points="11.25 51.33 11.32 28.68 37.82 21"/>
    <polyline class="cls-2" points="285.42 226 309.5 226 309.5 248.24"/>
    <line class="cls-5" x1="81.75" y1="9.8" x2="81.75" y2="58.96"/>
    <polyline class="cls-2" points="219.2 164.88 243.28 164.88 243.28 143.44"/>
    <line class="cls-3" x1="130.13" y1="186.53" x2="236.95" y2="186.53"/>
    <line class="cls-3" x1="210.46" y1="195.67" x2="269.6" y2="195.67"/>
    <line class="cls-3" x1="177.61" y1="196.66" x2="154.66" y2="196.66"/>
    <polyline class="cls-7" points="72.93 173.01 172.31 221.47 316.89 217.97"/>
    <line class="cls-5" x1="186.49" y1="248.97" x2="198.89" y2="233.47"/>
    <path class="cls-6" d="M196.87,47.56c12.11-1.76,25.39,13.21,31.81,13.21"/>
    <path class="cls-6" d="M162.84,65c11.79-3.25,14.36-14.58,34.03-17.44"/>
    <path class="cls-6" d="M123.2,41.96c18.32,5.45,20.42,28.33,39.64,23.04"/>
    <path class="cls-6" d="M96.44,48.98c4.04-.56,16.14-10.18,26.76-7.02"/>
    <path class="cls-6" d="M196.71,74.14c12.14-1.76,25.45,13.24,31.87,13.24"/>
    <path class="cls-6" d="M162.61,91.61c11.82-3.25,14.39-14.62,34.1-17.48"/>
    <path class="cls-6" d="M122.88,68.53c18.25,5.81,20.46,28.39,39.72,23.09"/>
    <path class="cls-6" d="M96.44,76.71c4.53-.28,15.69-11.61,26.44-8.19"/>
    <path class="cls-6" d="M196.71,99.27c12.14-1.76,25.45,13.24,31.87,13.24"/>
    <path class="cls-6" d="M162.61,116.75c11.82-3.25,14.39-14.62,34.1-17.48"/>
    <path class="cls-6" d="M122.88,93.66c18.25,5.81,20.46,28.39,39.72,23.09"/>
    <path class="cls-6" d="M96.44,101.85c4.53-.28,15.69-11.61,26.44-8.19"/>
  </g>
</svg>